<?xml version="1.0" encoding="UTF-8" standalone="no"?>
<!-- Created with Inkscape (http://www.inkscape.org/) -->

<svg
   xmlns:dc="http://purl.org/dc/elements/1.1/"
   xmlns:cc="http://creativecommons.org/ns#"
   xmlns:rdf="http://www.w3.org/1999/02/22-rdf-syntax-ns#"
   xmlns:svg="http://www.w3.org/2000/svg"
   xmlns="http://www.w3.org/2000/svg"
   xmlns:sodipodi="http://sodipodi.sourceforge.net/DTD/sodipodi-0.dtd"
   xmlns:inkscape="http://www.inkscape.org/namespaces/inkscape"
   width="32"
   height="32"
   id="svg2"
   version="1.1"
   inkscape:version="0.48.4 r9939"
   inkscape:export-filename="/home/faizal/DEV/ADT workspace/Aladha/res/drawable-xxhdpi/ic_menu_unarchive.png"
   inkscape:export-xdpi="270"
   inkscape:export-ydpi="270"
   sodipodi:docname="ic_menu_unarchive.svg">
  <defs
     id="defs4">
    <inkscape:perspective
       sodipodi:type="inkscape:persp3d"
       inkscape:vp_x="42.938861 : 289.90893 : 1"
       inkscape:vp_y="642.78761 : 766.04444 : 0"
       inkscape:vp_z="900.96365 : 380.22376 : 1"
       inkscape:persp3d-origin="448.90849 : 325.39555 : 1"
       id="perspective3059" />
  </defs>
  <sodipodi:namedview
     id="base"
     pagecolor="#ffffff"
     bordercolor="#666666"
     borderopacity="1.0"
     inkscape:pageopacity="0.0"
     inkscape:pageshadow="2"
     inkscape:zoom="11.2"
     inkscape:cx="20.527042"
     inkscape:cy="15.269662"
     inkscape:document-units="px"
     inkscape:current-layer="layer1"
     showgrid="false"
     showborder="true"
     inkscape:showpageshadow="false"
     showguides="true"
     inkscape:guide-bbox="true"
     inkscape:window-width="1366"
     inkscape:window-height="744"
     inkscape:window-x="0"
     inkscape:window-y="24"
     inkscape:window-maximized="1"
     inkscape:snap-grids="false"
     inkscape:snap-nodes="true"
     inkscape:snap-to-guides="true"
     inkscape:object-nodes="false"
     inkscape:snap-smooth-nodes="false"
     inkscape:snap-bbox="true"
     inkscape:bbox-nodes="true"
     inkscape:snap-global="false">
    <sodipodi:guide
       orientation="1,0"
       position="120,1002.8571"
       id="guide2985" />
    <sodipodi:guide
       orientation="0,1"
       position="-117.14286,120"
       id="guide2989" />
    <sodipodi:guide
       orientation="1,0"
       position="840,0"
       id="guide2991" />
    <sodipodi:guide
       orientation="0,1"
       position="-231.42857,840"
       id="guide4625" />
    <sodipodi:guide
       orientation="0,1"
       position="17.767857,28"
       id="guide4646" />
    <sodipodi:guide
       orientation="0,1"
       position="5.2678572,4"
       id="guide4648" />
    <sodipodi:guide
       orientation="1,0"
       position="4,40.446429"
       id="guide4650" />
    <sodipodi:guide
       orientation="1,0"
       position="28,17.857143"
       id="guide4652" />
  </sodipodi:namedview>
  <metadata
     id="metadata7">
    <rdf:RDF>
      <cc:Work
         rdf:about="">
        <dc:format>image/svg+xml</dc:format>
        <dc:type
           rdf:resource="http://purl.org/dc/dcmitype/StillImage" />
        <dc:title></dc:title>
      </cc:Work>
    </rdf:RDF>
  </metadata>
  <g
     inkscape:label="Layer 1"
     inkscape:groupmode="layer"
     id="layer1"
     transform="translate(0,-1020.3622)">
    <path
       style="opacity:0.8;fill:#ffffff;fill-opacity:0.8;stroke:none"
       d="m 274.71875,215.86218 -4.78125,6.15625 -139.4375,179.4375 -18.15625,23.375 -0.46875,0 0,0.59375 -1.375,1.78125 1.375,0 0,502.28125 722.34375,0 0,-502.28125 5,0 -20,-25.75 -139.4375,-179.4375 -4.78125,-6.15625 -7.8125,0 -384.65625,0 -7.8125,0 z m 15.65625,31.90625 368.96875,0 L 774,395.29968 l -598.28125,0 L 290.375,247.76843 z m 185.0625,263.15625 148.96875,254.28125 -91.625,0.59375 0,113.4375 -111.4375,0 0,-112.75 -91.625,0.59375 145.71875,-256.15625 z"
       id="path3107"
       inkscape:export-filename="/home/faizal/DEV/ADT workspace/Aladha/res/drawable-xxhdpi/ic_menu_unarchive.png"
       inkscape:export-xdpi="5.9299998"
       inkscape:export-ydpi="5.9299998"
       inkscape:connector-curvature="0" />
    <path
       inkscape:connector-curvature="0"
       style="opacity:0.8;fill:#ffffff;fill-opacity:0.8;stroke:none"
       d="m 9.3503251,1025.2502 -0.1564775,0.2015 -4.5634028,5.8725 -0.5942037,0.765 -0.015339,0 0,0.02 -0.044998,0.059 0.044998,0 0,16.4382 23.6403113,0 0,-16.4382 0.163636,0 -0.654545,-0.8429 -4.563403,-5.8724 -0.156477,-0.2015 -0.255681,0 -12.5887351,0 -0.2556807,0 z m 0.5123852,1.0443 12.0753257,0 3.752382,4.8282 -19.5800891,0 3.7523814,-4.8282 z m 6.0565827,8.6123 4.875336,8.322 -2.998634,0.02 0,3.7124 -3.64704,0 0,-3.69 -2.998633,0.02 4.768971,-8.3834 z"
       id="path3107-4"
       inkscape:export-filename="/home/faizal/DEV/ADT workspace/Aladha/res/drawable-xxhdpi/ic_menu_unarchive.png"
       inkscape:export-xdpi="5.9299998"
       inkscape:export-ydpi="5.9299998" />
  </g>
</svg>
